<?xml version="1.0" encoding="utf-8"?>
<!-- Generator: Adobe Illustrator 28.1.0, SVG Export Plug-In . SVG Version: 6.00 Build 0)  -->
<svg version="1.1" id="К8_00000061458752781201031570000003160946522427089823_"
	 xmlns="http://www.w3.org/2000/svg" xmlns:xlink="http://www.w3.org/1999/xlink" x="0px" y="0px" viewBox="0 0 32 32"
	 style="enable-background:new 0 0 32 32;" xml:space="preserve">
<style type="text/css">
	.st0{fill:#582C83;}
	.st1{fill:#1E0843;}
	.st2{fill:#FFFFFF;}
</style>
<path class="st0" d="M32,16c0,1.6-0.24,3.15-0.68,4.61c-0.45,1.49-1.1,2.89-1.94,4.17v0.01c-1.4,2.12-3.3,3.89-5.52,5.15
	c-0.49,0.28-1,0.53-1.53,0.75C20.39,31.54,18.25,32,16,32c-2.3,0-4.49-0.48-6.46-1.37C9,30.41,8.48,30.14,7.98,29.85
	c-2.16-1.25-4-2.99-5.36-5.07c-0.84-1.27-1.5-2.67-1.94-4.17C0.24,19.15,0,17.6,0,16C0,9.39,4,3.72,9.72,1.28
	c0.53-0.22,1.07-0.42,1.63-0.59C12.82,0.24,14.38,0,16,0s3.18,0.24,4.65,0.69c0.56,0.17,1.1,0.37,1.63,0.59C28,3.72,32,9.39,32,16z"
	/>
<path class="st1" d="M22.28,1.28C20.35,0.46,18.23,0,16,0s-4.35,0.46-6.28,1.28L0.68,20.61c1.17,3.93,3.82,7.22,7.3,9.24l1.41-3.43
	h13.02l1.45,3.52c3.56-2.01,6.27-5.34,7.46-9.33L22.28,1.28z M12.57,18.65l3.33-8.04l3.33,8.04H12.57z"/>
<g>
	<polygon class="st2" points="16.55,22.14 12.2,15.81 16.39,9.86 13.97,9.86 10.45,15 8.1,15 8.1,9.86 5.86,9.86 5.86,22.14 
		8.1,22.14 8.1,16.96 10.38,16.96 13.97,22.14 	"/>
	<path class="st2" d="M25.78,15.68c1-0.54,1.56-1.42,1.56-2.58c0-2.1-1.86-3.42-4.59-3.42c-2.72,0-4.56,1.31-4.56,3.42
		c0,1.16,0.54,2.03,1.53,2.58c-1.26,0.58-1.96,1.58-1.96,2.93c0,2.28,1.95,3.7,5,3.7s5.03-1.42,5.03-3.7
		C27.78,17.26,27.06,16.26,25.78,15.68z M22.75,11.48c1.4,0,2.35,0.63,2.35,1.74c0,1.05-0.89,1.72-2.35,1.72
		c-1.44,0-2.31-0.67-2.31-1.72C20.43,12.11,21.34,11.48,22.75,11.48z M22.75,20.52c-1.68,0-2.7-0.74-2.7-1.98
		c0-1.21,1.02-1.96,2.7-1.96c1.68,0,2.73,0.75,2.73,1.96C25.48,19.79,24.43,20.52,22.75,20.52z"/>
</g>
</svg>
